<?xml version="1.0" standalone="no"?>
<!DOCTYPE svg PUBLIC "-//W3C//DTD SVG 20010904//EN"
 "http://www.w3.org/TR/2001/REC-SVG-20010904/DTD/svg10.dtd">
<svg version="1.0" xmlns="http://www.w3.org/2000/svg"
 width="16.000000pt" height="16.000000pt" viewBox="0 0 16.000000 16.000000"
 preserveAspectRatio="xMidYMid meet">
<metadata>
Created by potrace 1.11, written by Peter Selinger 2001-2013
</metadata>
<g transform="translate(0.000000,16.000000) scale(0.002899,-0.002899)"
fill="#000000" stroke="none">
<path d="M2788 5486 c-1 -2 -64 -6 -138 -10 -74 -3 -148 -8 -165 -11 -206 -30
-205 -30 -330 -60 -544 -129 -1025 -418 -1395 -837 -97 -109 -236 -292 -279
-365 -30 -53 -30 -53 -8 -57 12 -2 51 -9 86 -16 95 -17 164 -52 225 -113 76
-76 102 -146 99 -263 -5 -149 -102 -343 -248 -490 -79 -80 -134 -118 -209
-143 -151 -52 -240 61 -152 193 30 44 100 83 139 77 4 0 1 -13 -6 -28 -24 -47
-9 -81 38 -84 127 -7 210 49 300 201 89 153 114 304 69 416 -48 120 -171 194
-323 194 -52 0 -71 -4 -83 -17 -14 -17 -79 -146 -126 -254 -48 -108 -136 -391
-157 -504 -31 -174 -42 -247 -51 -370 -2 -22 -3 -110 -4 -195 0 -140 3 -206
15 -295 2 -16 7 -55 10 -86 4 -31 10 -61 14 -68 14 -23 240 -60 402 -67 l97
-4 7 28 c4 15 31 94 62 175 110 299 262 578 481 887 313 441 653 784 1077
1086 168 120 180 127 320 197 219 109 368 148 540 143 126 -4 195 -25 266 -80
23 -19 49 -33 58 -30 9 2 43 11 76 20 33 9 69 18 80 20 11 2 54 10 95 19 104
20 118 22 207 31 85 8 343 8 389 0 16 -3 66 -11 111 -17 l81 -12 66 48 66 49
-23 24 c-38 41 -188 156 -294 226 -115 75 -291 169 -403 217 -168 70 -455 157
-580 174 -24 4 -47 8 -50 10 -3 2 -37 6 -75 10 -39 4 -73 9 -76 11 -3 1 -66 6
-140 9 -74 4 -139 8 -146 10 -6 2 -13 2 -15 1z"/>
<path d="M4587 4719 c-20 -17 -37 -34 -37 -38 0 -4 19 -14 43 -20 54 -17 206
-88 231 -110 18 -15 18 -15 8 4 -17 32 -179 195 -194 195 -7 0 -30 -14 -51
-31z"/>
<path d="M4108 4695 c-2 -1 -70 -5 -153 -9 -82 -3 -168 -8 -190 -12 -600 -87
-1147 -412 -1556 -924 -195 -244 -318 -474 -393 -734 -54 -185 -67 -354 -37
-464 l12 -42 62 32 c193 98 399 232 579 376 119 96 149 122 249 219 36 35 52
44 68 38 30 -9 26 -21 -22 -68 -237 -234 -580 -480 -849 -611 -32 -16 -58 -32
-58 -37 0 -36 138 -135 215 -154 61 -14 71 -16 135 -16 246 0 472 132 627 366
114 172 146 317 93 427 -46 96 -119 145 -198 133 -60 -9 -134 -37 -184 -70
-22 -14 -47 -25 -56 -23 -26 5 17 40 105 84 68 35 83 38 153 39 74 0 79 1 106
31 304 329 534 721 582 991 9 54 9 162 -2 198 -3 11 -8 30 -12 42 -5 17 0 25
25 38 l32 16 16 -38 c43 -100 12 -302 -74 -493 -14 -30 -34 -75 -45 -100 -72
-167 -284 -477 -436 -640 -34 -36 -61 -68 -62 -71 0 -4 10 -17 23 -30 68 -70
91 -137 85 -245 -13 -219 -222 -499 -468 -628 -106 -55 -192 -78 -310 -82
-109 -4 -147 2 -240 38 -156 61 -272 216 -305 408 -13 78 -13 238 0 310 23
122 24 125 56 217 117 331 381 653 774 943 203 150 502 315 763 420 47 20 79
37 73 43 -23 23 -129 45 -206 42 -203 -7 -521 -179 -815 -440 -101 -89 -393
-388 -489 -500 -195 -228 -407 -525 -608 -855 -88 -144 -313 -587 -313 -616 0
-2 6 -2 13 1 6 2 35 6 62 9 189 22 460 92 663 173 50 20 65 23 77 13 8 -7 15
-16 15 -21 0 -23 -352 -142 -515 -174 -118 -23 -194 -37 -220 -40 -44 -5 -120
-16 -121 -18 -13 -15 -103 -292 -124 -380 -110 -449 -16 -803 245 -931 103
-50 327 -81 440 -61 205 37 295 67 453 150 232 123 351 228 524 465 63 87 203
315 273 445 26 50 51 95 55 100 4 6 47 87 95 180 48 94 110 213 138 265 27 52
79 151 114 220 148 285 373 681 563 990 5 8 28 47 51 85 62 102 198 310 252
385 76 105 82 113 92 124 6 6 21 25 33 41 52 67 142 166 245 269 109 109 116
124 62 127 -11 0 -27 2 -35 4 -38 9 -199 32 -202 30z"/>
<path d="M4444 4583 c-70 -73 -183 -234 -277 -390 -171 -286 -396 -702 -559
-1033 -118 -241 -249 -502 -278 -555 -15 -27 -46 -86 -70 -130 -106 -194 -469
-775 -532 -850 -5 -5 -36 -48 -70 -95 -325 -450 -717 -715 -1153 -776 -189
-27 -488 16 -614 88 -18 10 -35 17 -37 15 -3 -3 70 -78 150 -153 81 -76 318
-246 436 -311 128 -71 155 -84 262 -131 348 -151 710 -226 1093 -226 215 0
363 16 565 59 143 31 133 29 238 61 48 15 89 28 92 29 3 1 14 5 25 9 328 125
615 293 855 501 74 64 247 238 295 296 28 34 55 67 60 73 29 31 141 193 198
287 102 167 216 416 262 574 9 33 21 71 26 85 9 27 45 175 53 225 3 17 8 40
10 53 41 203 53 644 21 802 -3 14 -7 43 -10 65 -22 186 -106 479 -203 705 -30
71 -70 150 -75 150 -1 0 -3 -46 -3 -103 -1 -82 -7 -118 -28 -182 -81 -239
-256 -448 -553 -658 l-93 -65 67 -28 c248 -106 395 -302 429 -572 25 -199 -28
-476 -128 -662 -103 -193 -237 -360 -418 -517 -200 -176 -449 -304 -675 -347
-113 -21 -298 -15 -386 13 -363 116 -439 529 -166 900 143 195 339 327 542
366 37 7 130 7 170 0 126 -23 195 -80 195 -161 0 -64 -89 -131 -170 -128 -56
2 -70 6 -94 25 l-27 22 40 18 c54 24 70 62 43 98 -56 76 -194 95 -308 44 -68
-31 -177 -109 -243 -175 -191 -189 -288 -428 -255 -624 16 -94 43 -153 100
-214 146 -156 402 -167 669 -28 179 93 367 258 523 458 37 47 69 87 72 90 28
27 117 173 176 290 124 247 177 531 130 695 -49 166 -139 265 -324 356 l-53
26 -115 -62 c-152 -83 -319 -147 -439 -170 -52 -10 -162 -6 -191 7 -72 30 -80
59 -33 113 66 75 252 158 414 185 65 11 243 14 308 5 32 -4 85 34 194 142 163
160 305 371 365 543 47 136 60 310 32 430 -31 132 -117 255 -246 351 -75 55
-210 129 -237 129 -7 0 -28 -17 -47 -37z"/>
<path d="M4000 2964 c-120 -31 -207 -68 -265 -112 -88 -67 -66 -105 60 -105
80 1 96 3 185 33 68 23 261 119 323 162 33 22 35 27 20 33 -10 4 -67 8 -128 9
-86 2 -128 -2 -195 -20z"/>
<path d="M126 2204 c3 -16 6 -38 8 -49 21 -115 115 -390 188 -545 71 -151 246
-445 277 -464 5 -3 -4 35 -20 84 -45 140 -59 250 -54 445 2 94 5 181 8 195 2
14 10 59 16 100 7 41 19 101 27 134 9 32 14 60 12 61 -5 5 -76 14 -163 20 -44
4 -91 8 -105 10 -48 8 -145 25 -172 31 -25 6 -27 4 -22 -22z"/>
</g>
</svg>
